# AST/ASF file generated using VICON BodyLanguage
# -----------------------------------------------
:version 1.10
:name VICON
:units
  mass 1.0
  length 0.45
  angle deg
:documentation
   .ast/.asf automatically generated from VICON data using
   VICON BodyBuilder and BodyLanguage model FoxedUp or BRILLIANT.MOD
:root
   order TX TY TZ RX RY RZ
   axis XYZ
   position 0 0 0  
   orientation 0 0 0 
:bonedata
  begin
     id 1 
     name lhipjoint
     direction 0.734343 -0.627749 0.258209 
     length 2.5437 
     axis 0 0 0  XYZ
  end
  begin
     id 2 
     name lfemur
     direction 0.34202 -0.939693 0  
     length 6.7391  
     axis 0 0 20  XYZ
    dof rx ry rz
    limits (-160.0 20.0)
           (-70.0 70.0)
           (-60.0 70.0)
  end
  begin
     id 3 
     name ltibia
     direction 0.34202 -0.939693 0   
     length 7.21536   
     axis 0 0 20   XYZ
    dof rx
    limits (-10.0 170.0)
  end
  begin
     id 4 
     name lfoot
     direction 0.0489572 -0.134509 0.989702   
     length 1.61313   
     axis -90 7.62852e-016 20   XYZ
    dof rx rz
    limits (-45.0 90.0)
           (-70.0 20.0)
  end
  begin
     id 5 
     name ltoes
     direction 1.53451e-011 -4.21692e-011 1   
     length 0.823104   
     axis -90 7.62852e-016 20   XYZ
    dof rx
    limits (-90.0 20.0)
  end
  begin
     id 6 
     name rhipjoint
     direction -0.746398 -0.615468 0.253157   
     length 2.59446  
     axis 0 0 0  XYZ 
  end
  begin
     id 7 
     name rfemur
     direction -0.34202 -0.939693 0   
     length 6.7075   
     axis 0 0 -20   XYZ
    dof rx ry rz
    limits (-160.0 20.0)
           (-70.0 70.0)
           (-70.0 60.0)
  end
  begin
     id 8 
     name rtibia
     direction -0.34202 -0.939693 0   
     length 7.27262   
     axis 0 0 -20   XYZ
    dof rx
    limits (-10.0 170.0)
 end
 begin
     id 9 
     name rfoot
     direction -0.0455203 -0.125066 0.991104   
     length 1.91095  
     axis -90 -7.62852e-016 -20   XYZ
    dof rx rz
    limits (-45.0 90.0)
           (-20.0 70.0)
  end
  begin
     id 10 
     name rtoes
     direction -1.53601e-011 -4.21913e-011 1   
     length 0.969037   
     axis -90 -7.62852e-016 -20   XYZ
    dof rx
    limits (-90.0 20.0)
  end
  begin
     id 11 
     name lowerback
     direction 0.0181546 0.999122 -0.0377542   
     length 1.99916   
     axis 0 0 0   XYZ
    dof rx ry rz
    limits (-20.0 45.0)
           (-30.0 30.0)
           (-30.0 30.0)
  end
  begin
     id 12 
     name upperback
     direction 0.0203486 0.99589 0.0882534   
     length 1.951   
     axis 0 0 0   XYZ
    dof rx ry rz
    limits (-20.0 45.0)
           (-30.0 30.0)
           (-30.0 30.0)
  end
  begin
     id 13 
     name thorax
     direction 0.0131685 0.994241 0.106355   
     length 1.97461   
     axis 0 0 0   XYZ
    dof rx ry rz
    limits (-20.0 45.0)
           (-30.0 30.0)
           (-30.0 30.0)
  end
  begin
     id 14 
     name lowerneck
     direction -0.0281395 0.999325 0.023617   
     length 1.7959   
     axis 0 0 0   XYZ
    dof rx ry rz
    limits (-20.0 45.0)
           (-30.0 30.0)
           (-30.0 30.0)
  end
  begin
     id 15 
     name upperneck
     direction 0.0288721 0.991984 -0.123019   
     length 1.79917   
     axis 0 0 0   XYZ
    dof rx ry rz
    limits (-20.0 45.0)
           (-30.0 30.0)
           (-30.0 30.0)
  end
  begin
     id 16
     name head
     direction 0.0133797 0.998944 -0.0439492  
     length 1.80902  
     axis 0 0 0   XYZ
    dof rx ry rz
    limits (-20.0 45.0)
           (-30.0 30.0)
           (-30.0 30.0)
  end
  begin
     id 17 
     name lclavicle
     direction 0.919195 0.377107 0.113449  
     length 3.17815  
     axis 0 0 0   XYZ
    dof ry rz
    limits (-20.0 10.0)
           (0.0 20.0)
  end
  begin
     id 18 
     name lhumerus
     direction 1 -4.48959e-011 2.13129e-027   
     length 4.84137   
     axis 180 -30 -90   XYZ
    dof rx ry rz
    limits (-60.0 90.0)
           (-90.0 90.0)
           (-90.0 90.0)
  end
  begin
     id 19
     name lradius
     direction 1 -4.48957e-011 -6.30627e-028   
     length 3.2452   
     axis 180 -30 -90   XYZ
    dof rx
    limits (-10.0 170.0)
  end
  begin
     id 20
     name lwrist
     direction 1 -4.4901e-011 9.13299e-027   
     length 1.6226   
     axis -6.84618e-015 90 90   XYZ
    dof ry
    limits (-180.0 0.0)
 end
  begin
     id 21 
     name lhand
     direction 1 -4.48816e-011 1.82293e-026   
     length 0.521221   
     axis -1.16502e-014 90 90   XYZ
    dof rx rz
    limits (-90.0 90.0)
           (-45.0 45.0)
  end
  begin
     id 22 
     name lfingers
     direction 1 -4.49108e-011 3.65687e-026   
     length 0.420221   
     axis -2.33008e-014 90 90   XYZ
    dof rx
    limits (0.0 90.0)
  end
  begin
     id 23
     name lthumb
     direction 0.707107 -6.34943e-011 0.707107   
     length 0.603356   
     axis -90 45 5.69224e-014   XYZ
    dof rx rz
    limits (-45.0 45.0)
           (-45.0 45.0)
  end
  begin
     id 24 
     name rclavicle
     direction -0.90847 0.38596 0.160368   
     length 3.12973  
     axis 0 0 0   XYZ 
    dof ry rz
    limits (-10.0 20.0)
           (-20.0 0.0)
  end
  begin
     id 25 
     name rhumerus
     direction -1 -4.48974e-011 4.47268e-028  
     length 4.72284   
     axis 180 30 90   XYZ
    dof rx ry rz
    limits (-90.0 60.0)
           (-90.0 90.0)
           (-90.0 90.0)
  end
  begin
     id 26 
     name rradius
     direction -1 -4.48969e-011 3.43203e-027   
     length 3.23459   
     axis 180 30 90   XYZ
    dof rx
    limits (-10.0 170.0)
  end
  begin
     id 27 
     name rwrist
     direction -1 -4.48969e-011 9.12911e-027   
     length 1.6173   
     axis -6.84618e-015 -90 -90   XYZ
    dof ry
    limits (-180.0 0.0)
  end
  begin
     id 28
     name rhand
     direction -1 -4.49194e-011 1.83006e-026   
     length 0.307416   
     axis -1.16502e-014 -90 -90   XYZ
    dof rx rz
    limits (-90.0 90.0)
           (-45.0 45.0)
  end
  begin
     id 29
     name rfingers
     direction -1 -4.48423e-011 3.63103e-026   
     length 0.247847   
     axis -2.33008e-014 -90 -90   XYZ
    dof rx
    limits (0.0 90.0)
  end
  begin
     id 30
     name rthumb
     direction -0.707107 -6.34802e-011 0.707107   
     length 0.35586   
     axis -90 -45 -5.69224e-014   XYZ
    dof rx rz
    limits (-45.0 45.0)
           (-45.0 45.0)
  end
:hierarchy
  begin
    root lhipjoint rhipjoint lowerback
    lhipjoint lfemur
    lfemur ltibia
    ltibia lfoot
    lfoot ltoes
    rhipjoint rfemur
    rfemur rtibia
    rtibia rfoot
    rfoot rtoes
    lowerback upperback
    upperback thorax
    thorax lowerneck lclavicle rclavicle
    lowerneck upperneck
    upperneck head
    lclavicle lhumerus
    lhumerus lradius
    lradius lwrist
    lwrist lhand lthumb
    lhand lfingers
    rclavicle rhumerus
    rhumerus rradius
    rradius rwrist
    rwrist rhand rthumb
    rhand rfingers
  end

#!OML:ASF H:\Terrain\Patient Classification 1\Animal1\Tuesday\Animal1.ASF
:FULLY-SPECIFIED
:DEGREES
1070
root 11.2878 16.5831 -11.0662 10.6973 -4.39759 1.5874
lowerback -0.823888 -0.860008 -0.494448
upperback -0.325247 -1.14335 0.130269
thorax 0.14122 -0.57147 0.399506
lowerneck -8.51439 11.016 1.21822
upperneck 7.50381 14.1498 5.11552
head 3.6431 7.26982 2.27548
rclavicle -2.21148e-015 -1.0138e-014
rhumerus -4.7479 30.5162 -50.0794
rradius 108.487
rwrist -46.0936
rhand -31.6863 29.9411
rfingers 7.12502
rthumb -4.9458 0.018843
lclavicle -2.21148e-015 -1.0138e-014
lhumerus -31.1762 -6.12241 46.5194
lradius 93.1695
lwrist -4.95765
lhand 7.68505 36.9742
lfingers 7.12502
lthumb 32.9275 63.9897
rfemur -21.0362 24.9938 16.4443
rtibia 24.3003
rfoot -18.5469 -37.1303
rtoes 24.9184
lfemur -19.6457 -26.6312 -13.2639
ltibia 18.4645
lfoot -15.3309 26.3481
ltoes 5.66709
1071
root 11.2875 16.5834 -11.0657 10.6509 -4.40028 1.5265
lowerback -0.84081 -0.857913 -0.364213
upperback -0.294094 -1.14134 0.0825463
thorax 0.179037 -0.570665 0.277216
lowerneck -8.54615 10.9667 1.2586
upperneck 7.57598 14.0714 5.16644
head 3.67615 7.23528 2.28855
rclavicle -1.07841e-014 -1.98785e-015
rhumerus -4.74488 30.5186 -50.1581
rradius 108.461
rwrist -46.1313
rhand -31.553 29.5367
rfingers 7.12502
rthumb -4.81713 -0.388533
lclavicle -1.07841e-014 -1.98785e-015
lhumerus -31.1373 -6.15612 46.4286
lradius 93.1916
lwrist -4.97952
lhand 7.65964 36.8937
lfingers 7.12502
lthumb 32.9033 63.9142
rfemur -20.9918 24.9853 16.5478
rtibia 24.357
rfoot -18.591 -37.1314
rtoes 24.5913
lfemur -19.5319 -26.4717 -13.2698
ltibia 18.3919
lfoot -15.6123 26.1387
ltoes 7.23897
1072
root 11.2867 16.5832 -11.0681 10.5817 -4.45497 1.66092
lowerback -0.841154 -0.874921 -0.540076
upperback -0.233028 -1.16232 0.047209
thorax 0.244613 -0.581412 0.338687
lowerneck -8.58123 10.9613 1.24095
upperneck 7.55829 14.0642 5.18464
head 3.67411 7.23215 2.29834
rclavicle 9.01985e-015 -1.39149e-014
rhumerus -4.63069 30.5744 -50.1214
rradius 108.449
rwrist -46.0763
rhand -31.7502 29.2679
rfingers 7.12502
rthumb -5.00749 -0.65294
lclavicle 9.01985e-015 -1.39149e-014
lhumerus -31.0993 -6.0736 46.4239
lradius 93.1617
lwrist -5.06057
lhand 7.75196 36.928
lfingers 7.12502
lthumb 32.9912 63.9301
rfemur -20.9627 24.9846 16.4168
rtibia 24.3813
rfoot -18.9424 -36.9676
rtoes 24.9267
lfemur -19.4668 -26.574 -13.4096
ltibia 18.3706
lfoot -15.3141 26.269
ltoes 6.12422
1073
root 11.2867 16.584 -11.069 10.5227 -4.47861 1.73293
lowerback -0.762605 -0.889895 -0.705202
upperback -0.229918 -1.18158 0.0841353
thorax 0.208093 -0.590979 0.470004
lowerneck -8.78441 10.9217 1.16126
upperneck 7.81589 14.001 5.2578
head 3.79502 7.20537 2.36216
rclavicle -1.01629e-014 6.75868e-015
rhumerus -4.57186 30.6714 -50.0116
rradius 108.472
rwrist -46.0738
rhand -32.0078 29.9251
rfingers 7.12502
rthumb -5.25627 0.0103312
lclavicle -1.01629e-014 6.75868e-015
lhumerus -31.1562 -6.01995 46.4825
lradius 93.1461
lwrist -5.04865
lhand 7.99447 37.1488
lfingers 7.12502
lthumb 33.2218 64.102
rfemur -20.9383 24.9476 16.3626
rtibia 24.4211
rfoot -18.7238 -37.0197
rtoes 24.2882
lfemur -19.3755 -26.6922 -13.4929
ltibia 18.3249
lfoot -14.7012 26.5513
ltoes 4.01457
1074
root 11.2878 16.5861 -11.0697 10.5147 -4.40907 1.60083
lowerback -0.749005 -0.932436 -0.584023
upperback -0.21794 -1.23948 0.168377
thorax 0.212803 -0.61995 0.48785
lowerneck -9.06903 10.8242 0.965043
upperneck 8.11063 13.8662 5.40114
head 3.93361 7.14407 2.47158
rclavicle -1.73937e-015 -5.36719e-015
rhumerus -4.45953 30.7636 -49.8726
rradius 108.494
rwrist -46.0332
rhand -32.0224 30.3587
rfingers 7.12502
rthumb -5.27033 0.444199
lclavicle -1.73937e-015 -5.36719e-015
lhumerus -31.2544 -5.92762 46.5189
lradius 93.165
lwrist -5.02508
lhand 7.98173 37.0878
lfingers 7.12502
lthumb 33.2097 64.0436
rfemur -20.9396 24.9405 16.5201
rtibia 24.4749
rfoot -18.5305 -37.1854
rtoes 23.907
lfemur -19.3165 -26.5192 -13.4052
ltibia 18.2433
lfoot -14.4017 26.5216
ltoes 2.69441
1075
root 11.2881 16.5835 -11.0732 10.5172 -4.37212 1.56375
lowerback -0.816012 -0.978331 -0.486756
upperback -0.182903 -1.301 0.158196
thorax 0.284573 -0.650942 0.420715
lowerneck -9.1121 10.6624 0.680607
upperneck 8.03868 13.6718 5.5845
head 3.88661 7.04903 2.56307
rclavicle -1.78658e-014 -6.55989e-015
rhumerus -4.30307 30.8372 -49.8432
rradius 108.457
rwrist -45.9863
rhand -31.8808 29.862
rfingers 7.12502
rthumb -5.13367 -0.0558546
lclavicle -1.78658e-014 -6.55989e-015
lhumerus -31.2755 -5.82325 46.4689
lradius 93.1191
lwrist -5.10584
lhand 7.91073 36.8717
lfingers 7.12502
lthumb 33.1422 63.8418
rfemur -20.9468 24.9687 16.5564
rtibia 24.4746
rfoot -18.6101 -37.2546
rtoes 24.5987
lfemur -19.3435 -26.4349 -13.3604
ltibia 18.2375
lfoot -14.4941 26.3369
ltoes 2.6215
1076
root 11.288 16.5805 -11.0754 10.4868 -4.40821 1.62783
lowerback -0.810561 -0.989015 -0.513975
upperback -0.199019 -1.31488 0.0903092
thorax 0.264204 -0.657802 0.366681
lowerneck -9.25366 10.4248 0.402479
upperneck 8.12362 13.3545 5.91833
head 3.91029 6.90272 2.71451
rclavicle -6.93262e-015 -1.33186e-014
rhumerus -4.34873 30.9407 -49.9282
rradius 108.475
rwrist -45.9723
rhand -31.9728 30.052
rfingers 7.12502
rthumb -5.22247 0.136346
lclavicle -6.93262e-015 -1.33186e-014
lhumerus -31.3085 -5.85196 46.4034
lradius 93.0921
lwrist -5.16685
lhand 7.8559 36.9469
lfingers 7.12502
lthumb 33.09 63.928
rfemur -20.9295 25.0147 16.4805
rtibia 24.4651
rfoot -18.7265 -37.2308
rtoes 25.1405
lfemur -19.3234 -26.6424 -13.3801
ltibia 18.2486
lfoot -14.8035 26.3154
ltoes 3.85621
1077
root 11.2882 16.5796 -11.0755 10.48 -4.41638 1.61067
lowerback -0.798643 -0.978361 -0.522282
upperback -0.23009 -1.3007 0.0687272
thorax 0.225282 -0.650556 0.350004
lowerneck -9.58789 10.1205 0.225805
upperneck 8.78317 12.8914 6.43637
head 3.75767 6.72291 2.65471
rclavicle -1.38404e-014 1.09332e-014
rhumerus -4.46111 30.9911 -49.9796
rradius 108.496
rwrist -46.0266
rhand -32.0307 30.8955
rfingers 7.12502
rthumb -5.2784 0.981274
lclavicle -1.38404e-014 1.09332e-014
lhumerus -31.3195 -5.95614 46.3756
lradius 93.1271
lwrist -5.15248
lhand 7.72513 37.1115
lfingers 7.12502
lthumb 32.9656 64.1189
rfemur -20.933 24.9983 16.5086
rtibia 24.4842
rfoot -18.5261 -37.2277
rtoes 24.619
lfemur -19.3045 -26.8175 -13.3279
ltibia 18.2135
lfoot -14.7193 26.4858
ltoes 3.86199
1078
root 11.2873 16.5772 -11.0781 10.4903 -4.37968 1.59406
lowerback -0.817312 -0.970146 -0.543864
upperback -0.242278 -1.28947 0.0577806
thorax 0.223384 -0.64492 0.350795
lowerneck -9.64089 9.65481 -0.114267
upperneck 8.68425 12.2891 6.72592
head 3.7171 6.431 2.75849
rclavicle 1.02623e-014 -7.15625e-015
rhumerus -4.57365 30.9971 -49.9904
rradius 108.503
rwrist -46.0577
rhand -31.9526 31.2305
rfingers 7.12502
rthumb -5.203 1.31434
lclavicle 1.02623e-014 -7.15625e-015
lhumerus -31.2559 -5.97839 46.4048
lradius 93.1197
lwrist -5.29971
lhand 7.70683 36.9689
lfingers 7.12502
lthumb 32.9482 63.98
rfemur -20.9456 24.895 16.559
rtibia 24.4978
rfoot -18.1288 -37.2381
rtoes 23.9907
lfemur -19.3344 -26.8017 -13.2817
ltibia 18.1843
lfoot -13.8837 26.6482
ltoes 1.23552
1079
root 11.2865 16.578 -11.0798 10.4875 -4.35343 1.56753
lowerback -0.852558 -0.979227 -0.539488
upperback -0.220033 -1.30135 0.0630133
thorax 0.266029 -0.651015 0.352642
lowerneck -9.76683 9.0588 -0.54925
upperneck 8.53177 11.5306 6.97721
head 3.67893 6.05723 2.8613
rclavicle -2.09966e-014 2.78299e-015
rhumerus -4.62318 31.0378 -49.9575
rradius 108.543
rwrist -46.0422
rhand -31.9888 31.495
rfingers 7.12502
rthumb -5.23793 1.57976
lclavicle -2.09966e-014 2.78299e-015
lhumerus -31.2305 -5.81784 46.4815
lradius 93.138
lwrist -5.50442
lhand 7.9575 36.8991
lfingers 7.12502
lthumb 33.1866 63.8597
rfemur -20.9415 24.8806 16.5993
rtibia 24.5138
rfoot -18.4585 -37.1271
rtoes 24.7016
lfemur -19.3189 -26.6781 -13.2747
ltibia 18.1574
lfoot -13.5561 26.6656
ltoes -0.0423667
1080
root 11.2871 16.5791 -11.0786 10.4676 -4.33739 1.49406
lowerback -0.868196 -0.991109 -0.470639
upperback -0.173017 -1.31763 0.0754423
thorax 0.321792 -0.659328 0.325781
lowerneck -10.2887 8.44979 -0.845704
upperneck 8.71885 10.7262 7.12281
head 3.82975 5.66805 2.94503
rclavicle 3.90115e-015 1.54058e-014
rhumerus -4.572 31.032 -49.9572
rradius 108.49
rwrist -46.0236
rhand -31.9979 31.8829
rfingers 7.12502
rthumb -5.24667 1.9679
lclavicle 3.90115e-015 1.54058e-014
lhumerus -31.1917 -5.65381 46.5252
lradius 93.1591
lwrist -5.54496
lhand 8.18522 36.9932
lfingers 7.12502
lthumb 33.4031 63.9075
rfemur -20.9251 24.9453 16.6741
rtibia 24.5585
rfoot -19.2967 -36.9074
rtoes 26.0356
lfemur -19.2606 -26.7202 -13.213
ltibia 18.102
lfoot -13.9495 26.6715
ltoes 0.806032
1081
root 11.2867 16.5781 -11.0816 10.4423 -4.30627 1.56683
lowerback -0.840804 -1.01166 -0.554393
upperback -0.144602 -1.34421 0.0349738
thorax 0.336716 -0.672773 0.331166
lowerneck -10.6037 7.80956 -0.957155
upperneck 8.73569 9.88757 7.02438
head 3.92251 5.24972 2.90709
rclavicle -6.98231e-015 1.6201e-014
rhumerus -4.52111 31.0546 -49.9741
rradius 108.373
rwrist -45.9244
rhand -32.1733 32.1138
rfingers 7.12502
rthumb -5.41605 2.20297
lclavicle -6.98231e-015 1.6201e-014
lhumerus -31.1459 -5.6611 46.5186
lradius 93.1675
lwrist -5.50167
lhand 8.04761 37.1143
lfingers 7.12502
lthumb 33.2723 64.0567
rfemur -20.9377 24.9613 16.5921
rtibia 24.5998
rfoot -19.4357 -36.8879
rtoes 26.1885
lfemur -19.2506 -26.7812 -13.269
ltibia 18.0554
lfoot -14.136 26.5408
ltoes 1.82454
1082
root 11.2849 16.5802 -11.0852 10.4246 -4.2703 1.77791
lowerback -0.841656 -1.05347 -0.774651
upperback -0.123382 -1.39759 -0.0404884
thorax 0.362816 -0.699819 0.376361
lowerneck -10.6871 7.09791 -1.2737
upperneck 8.58059 8.97725 7.10504
head 3.91016 4.79518 2.93114
rclavicle 2.45996e-015 -9.0447e-015
rhumerus -4.45746 31.1567 -49.91
rradius 108.345
rwrist -45.9238
rhand -32.3506 32.1356
rfingers 7.12502
rthumb -5.58726 2.22922
lclavicle 2.45996e-015 -9.0447e-015
lhumerus -31.117 -5.68931 46.4936
lradius 93.1605
lwrist -5.46086
lhand 7.88787 37.3211
lfingers 7.12502
lthumb 33.1204 64.2959
rfemur -20.9593 24.9728 16.3596
rtibia 24.6263
rfoot -19.1094 -37.0804
rtoes 25.6436
lfemur -19.2482 -26.607 -13.5389
ltibia 18.0193
lfoot -14.2211 26.3045
ltoes 3.19941
1083
root 11.2848 16.5824 -11.0852 10.4443 -4.22306 1.82177
lowerback -0.865443 -1.09545 -0.817588
upperback -0.126769 -1.45289 -0.0609805
thorax 0.373896 -0.727548 0.378302
lowerneck -10.8613 6.37907 -1.75326
upperneck 8.56579 8.05665 7.38422
head 3.94436 4.34473 3.04822
rclavicle -2.01021e-014 -2.98177e-016
rhumerus -4.32704 31.264 -49.7903
rradius 108.291
rwrist -46.0405
rhand -32.2064 31.9694
rfingers 7.12502
rthumb -5.44804 2.05948
lclavicle -2.01021e-014 -2.98177e-016
lhumerus -31.1314 -5.64488 46.4761
lradius 93.1328
lwrist -5.45599
lhand 7.85943 37.4051
lfingers 7.12502
lthumb 33.0934 64.3855
rfemur -20.9806 24.9723 16.3044
rtibia 24.6443
rfoot -19.1502 -37.0983
rtoes 25.7763
lfemur -19.264 -26.5099 -13.6016
ltibia 18.0066
lfoot -14.1881 26.2001
ltoes 3.17131
1084
root 11.2846 16.5813 -11.0858 10.4832 -4.15909 1.68304
lowerback -0.864631 -1.13315 -0.722418
upperback -0.160979 -1.5044 -0.0146224
thorax 0.337892 -0.753005 0.372285
lowerneck -11.0106 5.75092 -2.00099
upperneck 8.52616 7.25277 7.37661
head 3.98748 3.94208 3.04642
rclavicle -7.50412e-015 2.27608e-014
rhumerus -4.06445 31.4152 -49.663
rradius 108.069
rwrist -45.9848
rhand -32.1957 31.8968
rfingers 7.12502
rthumb -5.43764 1.98656
lclavicle -7.50412e-015 2.27608e-014
lhumerus -31.2788 -5.67705 46.4359
lradius 93.1874
lwrist -5.3561
lhand 7.75958 37.6189
lfingers 7.12502
lthumb 32.9984 64.6194
rfemur -20.9939 24.8651 16.4704
rtibia 24.6323
rfoot -19.1034 -37.0271
rtoes 25.4596
lfemur -19.3411 -26.7238 -13.3659
ltibia 18.0506
lfoot -14.1734 26.2987
ltoes 2.81258
